<mxfile host="Electron" modified="2023-10-18T14:41:16.826Z" agent="Mozilla/5.0 (X11; Linux x86_64) AppleWebKit/537.36 (KHTML, like Gecko) draw.io/22.0.0 Chrome/114.0.5735.289 Electron/25.8.3 Safari/537.36" etag="oi0i4ux9FSp4uHN3H4Mk" version="22.0.0" type="device">
  <diagram id="R2lEEEUBdFMjLlhIrx00" name="Page-1">
    <mxGraphModel dx="1187" dy="726" grid="1" gridSize="10" guides="1" tooltips="1" connect="1" arrows="1" fold="1" page="1" pageScale="1" pageWidth="850" pageHeight="1100" math="0" shadow="0" extFonts="Permanent Marker^https://fonts.googleapis.com/css?family=Permanent+Marker">
      <root>
        <mxCell id="0" />
        <mxCell id="1" parent="0" />
        <mxCell id="yvBd70dj7Lv0b1-4gbpd-1" value="Team" style="whiteSpace=wrap;html=1;align=center;" parent="1" vertex="1">
          <mxGeometry x="1000" y="160" width="100" height="40" as="geometry" />
        </mxCell>
        <mxCell id="yvBd70dj7Lv0b1-4gbpd-2" value="Team_ID" style="ellipse;whiteSpace=wrap;html=1;align=center;fontStyle=4;" parent="1" vertex="1">
          <mxGeometry x="950" y="60" width="100" height="40" as="geometry" />
        </mxCell>
        <mxCell id="yvBd70dj7Lv0b1-4gbpd-4" value="Team_Name" style="ellipse;whiteSpace=wrap;html=1;align=center;" parent="1" vertex="1">
          <mxGeometry x="1080" y="60" width="100" height="40" as="geometry" />
        </mxCell>
        <mxCell id="yvBd70dj7Lv0b1-4gbpd-5" value="Manager" style="whiteSpace=wrap;html=1;align=center;" parent="1" vertex="1">
          <mxGeometry x="1110" y="490" width="100" height="40" as="geometry" />
        </mxCell>
        <mxCell id="yvBd70dj7Lv0b1-4gbpd-6" value="Manager_ID" style="ellipse;whiteSpace=wrap;html=1;align=center;fontStyle=4;" parent="1" vertex="1">
          <mxGeometry x="1035" y="580" width="100" height="40" as="geometry" />
        </mxCell>
        <mxCell id="yvBd70dj7Lv0b1-4gbpd-7" value="Manager_Name" style="ellipse;whiteSpace=wrap;html=1;align=center;" parent="1" vertex="1">
          <mxGeometry x="1150" y="580" width="125" height="40" as="geometry" />
        </mxCell>
        <mxCell id="yvBd70dj7Lv0b1-4gbpd-8" value="Referee" style="whiteSpace=wrap;html=1;align=center;" parent="1" vertex="1">
          <mxGeometry x="1900" y="670" width="100" height="40" as="geometry" />
        </mxCell>
        <mxCell id="yvBd70dj7Lv0b1-4gbpd-9" value="Referee_ID" style="ellipse;whiteSpace=wrap;html=1;align=center;fontStyle=4;" parent="1" vertex="1">
          <mxGeometry x="1800" y="775" width="100" height="40" as="geometry" />
        </mxCell>
        <mxCell id="yvBd70dj7Lv0b1-4gbpd-10" value="Referee_Name" style="ellipse;whiteSpace=wrap;html=1;align=center;" parent="1" vertex="1">
          <mxGeometry x="1970" y="775" width="125" height="40" as="geometry" />
        </mxCell>
        <mxCell id="yvBd70dj7Lv0b1-4gbpd-14" value="Game" style="whiteSpace=wrap;html=1;align=center;" parent="1" vertex="1">
          <mxGeometry x="1880" y="335" width="140" height="90" as="geometry" />
        </mxCell>
        <mxCell id="yvBd70dj7Lv0b1-4gbpd-15" value="Match_ID" style="ellipse;whiteSpace=wrap;html=1;align=center;fontStyle=4;" parent="1" vertex="1">
          <mxGeometry x="1915" y="195" width="100" height="40" as="geometry" />
        </mxCell>
        <mxCell id="yvBd70dj7Lv0b1-4gbpd-16" value="Venue" style="ellipse;whiteSpace=wrap;html=1;align=center;" parent="1" vertex="1">
          <mxGeometry x="2055" y="200" width="105" height="40" as="geometry" />
        </mxCell>
        <mxCell id="yvBd70dj7Lv0b1-4gbpd-17" value="Game_Round" style="ellipse;whiteSpace=wrap;html=1;align=center;" parent="1" vertex="1">
          <mxGeometry x="2073" y="270" width="105" height="40" as="geometry" />
        </mxCell>
        <mxCell id="yvBd70dj7Lv0b1-4gbpd-18" value="Date" style="ellipse;whiteSpace=wrap;html=1;align=center;" parent="1" vertex="1">
          <mxGeometry x="2080" y="385" width="105" height="40" as="geometry" />
        </mxCell>
        <mxCell id="yvBd70dj7Lv0b1-4gbpd-19" value="Attendance" style="ellipse;whiteSpace=wrap;html=1;align=center;" parent="1" vertex="1">
          <mxGeometry x="2073" y="460" width="105" height="40" as="geometry" />
        </mxCell>
        <mxCell id="yvBd70dj7Lv0b1-4gbpd-20" value="Home_Team_ID" style="ellipse;whiteSpace=wrap;html=1;align=center;" parent="1" vertex="1">
          <mxGeometry x="2060" y="530" width="105" height="40" as="geometry" />
        </mxCell>
        <mxCell id="yvBd70dj7Lv0b1-4gbpd-21" value="Away_Team_ID" style="ellipse;whiteSpace=wrap;html=1;align=center;" parent="1" vertex="1">
          <mxGeometry x="1730" y="510" width="105" height="40" as="geometry" />
        </mxCell>
        <mxCell id="yvBd70dj7Lv0b1-4gbpd-22" value="Home_Manager_ID" style="ellipse;whiteSpace=wrap;html=1;align=center;" parent="1" vertex="1">
          <mxGeometry x="1680" y="430" width="135" height="40" as="geometry" />
        </mxCell>
        <mxCell id="yvBd70dj7Lv0b1-4gbpd-23" value="Away_Manager_ID" style="ellipse;whiteSpace=wrap;html=1;align=center;" parent="1" vertex="1">
          <mxGeometry x="1640" y="245" width="130" height="40" as="geometry" />
        </mxCell>
        <mxCell id="yvBd70dj7Lv0b1-4gbpd-24" value="Referee_ID" style="ellipse;whiteSpace=wrap;html=1;align=center;" parent="1" vertex="1">
          <mxGeometry x="2080" y="330" width="105" height="40" as="geometry" />
        </mxCell>
        <mxCell id="yvBd70dj7Lv0b1-4gbpd-25" value="Host_ID" style="ellipse;whiteSpace=wrap;html=1;align=center;" parent="1" vertex="1">
          <mxGeometry x="1760" y="205" width="105" height="40" as="geometry" />
        </mxCell>
        <mxCell id="yvBd70dj7Lv0b1-4gbpd-26" value="Year_ID" style="ellipse;whiteSpace=wrap;html=1;align=center;" parent="1" vertex="1">
          <mxGeometry x="1845" y="245" width="105" height="40" as="geometry" />
        </mxCell>
        <mxCell id="yvBd70dj7Lv0b1-4gbpd-27" value="Goal" style="whiteSpace=wrap;html=1;align=center;" parent="1" vertex="1">
          <mxGeometry x="1335" y="630" width="100" height="40" as="geometry" />
        </mxCell>
        <mxCell id="yvBd70dj7Lv0b1-4gbpd-28" value="Goal_ID" style="ellipse;whiteSpace=wrap;html=1;align=center;fontStyle=4;" parent="1" vertex="1">
          <mxGeometry x="1235" y="755" width="100" height="40" as="geometry" />
        </mxCell>
        <mxCell id="yvBd70dj7Lv0b1-4gbpd-29" value="Match_ID" style="ellipse;whiteSpace=wrap;html=1;align=center;" parent="1" vertex="1">
          <mxGeometry x="1440" y="755" width="125" height="40" as="geometry" />
        </mxCell>
        <mxCell id="yvBd70dj7Lv0b1-4gbpd-30" value="Scorer" style="ellipse;whiteSpace=wrap;html=1;align=center;" parent="1" vertex="1">
          <mxGeometry x="1490" y="685" width="125" height="40" as="geometry" />
        </mxCell>
        <mxCell id="yvBd70dj7Lv0b1-4gbpd-31" value="Assist" style="ellipse;whiteSpace=wrap;html=1;align=center;" parent="1" vertex="1">
          <mxGeometry x="1160" y="685" width="125" height="40" as="geometry" />
        </mxCell>
        <mxCell id="yvBd70dj7Lv0b1-4gbpd-32" value="Minute" style="ellipse;whiteSpace=wrap;html=1;align=center;" parent="1" vertex="1">
          <mxGeometry x="1322.5" y="805" width="125" height="40" as="geometry" />
        </mxCell>
        <mxCell id="yvBd70dj7Lv0b1-4gbpd-39" value="Card" style="whiteSpace=wrap;html=1;align=center;" parent="1" vertex="1">
          <mxGeometry x="705" y="525" width="100" height="40" as="geometry" />
        </mxCell>
        <mxCell id="yvBd70dj7Lv0b1-4gbpd-40" value="Card_ID" style="ellipse;whiteSpace=wrap;html=1;align=center;fontStyle=4;" parent="1" vertex="1">
          <mxGeometry x="605" y="650" width="100" height="40" as="geometry" />
        </mxCell>
        <mxCell id="yvBd70dj7Lv0b1-4gbpd-41" value="Player" style="ellipse;whiteSpace=wrap;html=1;align=center;" parent="1" vertex="1">
          <mxGeometry x="810" y="650" width="125" height="40" as="geometry" />
        </mxCell>
        <mxCell id="yvBd70dj7Lv0b1-4gbpd-42" value="Card_Type" style="ellipse;whiteSpace=wrap;html=1;align=center;" parent="1" vertex="1">
          <mxGeometry x="860" y="580" width="125" height="40" as="geometry" />
        </mxCell>
        <mxCell id="yvBd70dj7Lv0b1-4gbpd-43" value="Match_ID" style="ellipse;whiteSpace=wrap;html=1;align=center;" parent="1" vertex="1">
          <mxGeometry x="530" y="580" width="125" height="40" as="geometry" />
        </mxCell>
        <mxCell id="yvBd70dj7Lv0b1-4gbpd-44" value="Country_ID" style="ellipse;whiteSpace=wrap;html=1;align=center;" parent="1" vertex="1">
          <mxGeometry x="692.5" y="700" width="125" height="40" as="geometry" />
        </mxCell>
        <mxCell id="yvBd70dj7Lv0b1-4gbpd-48" value="1" style="resizable=0;html=1;whiteSpace=wrap;align=right;verticalAlign=bottom;" parent="1" connectable="0" vertex="1">
          <mxGeometry x="2012.5" y="695" as="geometry">
            <mxPoint x="-68" y="-250" as="offset" />
          </mxGeometry>
        </mxCell>
        <mxCell id="yvBd70dj7Lv0b1-4gbpd-56" value="" style="endArrow=none;html=1;rounded=0;exitX=1;exitY=0;exitDx=0;exitDy=0;entryX=0;entryY=1;entryDx=0;entryDy=0;" parent="1" source="yvBd70dj7Lv0b1-4gbpd-43" target="yvBd70dj7Lv0b1-4gbpd-39" edge="1">
          <mxGeometry relative="1" as="geometry">
            <mxPoint x="730" y="595" as="sourcePoint" />
            <mxPoint x="890" y="595" as="targetPoint" />
          </mxGeometry>
        </mxCell>
        <mxCell id="yvBd70dj7Lv0b1-4gbpd-57" value="" style="endArrow=none;html=1;rounded=0;exitX=0.5;exitY=0;exitDx=0;exitDy=0;entryX=0.25;entryY=1;entryDx=0;entryDy=0;" parent="1" source="yvBd70dj7Lv0b1-4gbpd-40" target="yvBd70dj7Lv0b1-4gbpd-39" edge="1">
          <mxGeometry relative="1" as="geometry">
            <mxPoint x="730" y="595" as="sourcePoint" />
            <mxPoint x="890" y="595" as="targetPoint" />
          </mxGeometry>
        </mxCell>
        <mxCell id="yvBd70dj7Lv0b1-4gbpd-58" value="" style="endArrow=none;html=1;rounded=0;exitX=0.5;exitY=0;exitDx=0;exitDy=0;entryX=0.5;entryY=1;entryDx=0;entryDy=0;" parent="1" source="yvBd70dj7Lv0b1-4gbpd-44" target="yvBd70dj7Lv0b1-4gbpd-39" edge="1">
          <mxGeometry relative="1" as="geometry">
            <mxPoint x="730" y="595" as="sourcePoint" />
            <mxPoint x="770" y="585" as="targetPoint" />
          </mxGeometry>
        </mxCell>
        <mxCell id="yvBd70dj7Lv0b1-4gbpd-59" value="" style="endArrow=none;html=1;rounded=0;exitX=0.75;exitY=1;exitDx=0;exitDy=0;entryX=0;entryY=0;entryDx=0;entryDy=0;" parent="1" source="yvBd70dj7Lv0b1-4gbpd-39" target="yvBd70dj7Lv0b1-4gbpd-41" edge="1">
          <mxGeometry relative="1" as="geometry">
            <mxPoint x="730" y="595" as="sourcePoint" />
            <mxPoint x="890" y="595" as="targetPoint" />
          </mxGeometry>
        </mxCell>
        <mxCell id="yvBd70dj7Lv0b1-4gbpd-60" value="" style="endArrow=none;html=1;rounded=0;entryX=0;entryY=0;entryDx=0;entryDy=0;exitX=1;exitY=1;exitDx=0;exitDy=0;" parent="1" source="yvBd70dj7Lv0b1-4gbpd-39" target="yvBd70dj7Lv0b1-4gbpd-42" edge="1">
          <mxGeometry relative="1" as="geometry">
            <mxPoint x="730" y="595" as="sourcePoint" />
            <mxPoint x="890" y="595" as="targetPoint" />
          </mxGeometry>
        </mxCell>
        <mxCell id="yvBd70dj7Lv0b1-4gbpd-63" value="" style="endArrow=none;html=1;rounded=0;exitX=0.5;exitY=0;exitDx=0;exitDy=0;entryX=0.25;entryY=1;entryDx=0;entryDy=0;" parent="1" source="yvBd70dj7Lv0b1-4gbpd-9" target="yvBd70dj7Lv0b1-4gbpd-8" edge="1">
          <mxGeometry relative="1" as="geometry">
            <mxPoint x="1935" y="745" as="sourcePoint" />
            <mxPoint x="2095" y="745" as="targetPoint" />
          </mxGeometry>
        </mxCell>
        <mxCell id="yvBd70dj7Lv0b1-4gbpd-64" value="" style="endArrow=none;html=1;rounded=0;exitX=0.75;exitY=1;exitDx=0;exitDy=0;entryX=0.5;entryY=0;entryDx=0;entryDy=0;" parent="1" source="yvBd70dj7Lv0b1-4gbpd-8" target="yvBd70dj7Lv0b1-4gbpd-10" edge="1">
          <mxGeometry relative="1" as="geometry">
            <mxPoint x="1935" y="745" as="sourcePoint" />
            <mxPoint x="2095" y="745" as="targetPoint" />
          </mxGeometry>
        </mxCell>
        <mxCell id="yvBd70dj7Lv0b1-4gbpd-65" value="" style="endArrow=none;html=1;rounded=0;exitX=0.5;exitY=0;exitDx=0;exitDy=0;entryX=0.25;entryY=1;entryDx=0;entryDy=0;" parent="1" source="yvBd70dj7Lv0b1-4gbpd-6" target="yvBd70dj7Lv0b1-4gbpd-5" edge="1">
          <mxGeometry relative="1" as="geometry">
            <mxPoint x="1020" y="680" as="sourcePoint" />
            <mxPoint x="1180" y="680" as="targetPoint" />
          </mxGeometry>
        </mxCell>
        <mxCell id="yvBd70dj7Lv0b1-4gbpd-66" value="" style="endArrow=none;html=1;rounded=0;entryX=0.75;entryY=1;entryDx=0;entryDy=0;exitX=0.5;exitY=0;exitDx=0;exitDy=0;" parent="1" source="yvBd70dj7Lv0b1-4gbpd-7" target="yvBd70dj7Lv0b1-4gbpd-5" edge="1">
          <mxGeometry relative="1" as="geometry">
            <mxPoint x="1200" y="570" as="sourcePoint" />
            <mxPoint x="1180" y="680" as="targetPoint" />
          </mxGeometry>
        </mxCell>
        <mxCell id="yvBd70dj7Lv0b1-4gbpd-67" value="" style="endArrow=none;html=1;rounded=0;exitX=0.5;exitY=1;exitDx=0;exitDy=0;entryX=0.25;entryY=0;entryDx=0;entryDy=0;" parent="1" source="yvBd70dj7Lv0b1-4gbpd-2" target="yvBd70dj7Lv0b1-4gbpd-1" edge="1">
          <mxGeometry relative="1" as="geometry">
            <mxPoint x="940" y="160" as="sourcePoint" />
            <mxPoint x="1100" y="160" as="targetPoint" />
          </mxGeometry>
        </mxCell>
        <mxCell id="yvBd70dj7Lv0b1-4gbpd-68" value="" style="endArrow=none;html=1;rounded=0;exitX=0.5;exitY=1;exitDx=0;exitDy=0;entryX=0.75;entryY=0;entryDx=0;entryDy=0;" parent="1" source="yvBd70dj7Lv0b1-4gbpd-4" target="yvBd70dj7Lv0b1-4gbpd-1" edge="1">
          <mxGeometry relative="1" as="geometry">
            <mxPoint x="940" y="160" as="sourcePoint" />
            <mxPoint x="1100" y="160" as="targetPoint" />
          </mxGeometry>
        </mxCell>
        <mxCell id="yvBd70dj7Lv0b1-4gbpd-70" value="" style="endArrow=none;html=1;rounded=0;exitX=1;exitY=1;exitDx=0;exitDy=0;entryX=0;entryY=0.25;entryDx=0;entryDy=0;" parent="1" source="yvBd70dj7Lv0b1-4gbpd-23" target="yvBd70dj7Lv0b1-4gbpd-14" edge="1">
          <mxGeometry relative="1" as="geometry">
            <mxPoint x="1825" y="365" as="sourcePoint" />
            <mxPoint x="1985" y="365" as="targetPoint" />
          </mxGeometry>
        </mxCell>
        <mxCell id="yvBd70dj7Lv0b1-4gbpd-73" value="" style="endArrow=none;html=1;rounded=0;exitX=1;exitY=0;exitDx=0;exitDy=0;entryX=0.25;entryY=1;entryDx=0;entryDy=0;" parent="1" source="yvBd70dj7Lv0b1-4gbpd-21" target="yvBd70dj7Lv0b1-4gbpd-14" edge="1">
          <mxGeometry relative="1" as="geometry">
            <mxPoint x="1825" y="365" as="sourcePoint" />
            <mxPoint x="1985" y="365" as="targetPoint" />
          </mxGeometry>
        </mxCell>
        <mxCell id="yvBd70dj7Lv0b1-4gbpd-74" value="" style="endArrow=none;html=1;rounded=0;entryX=0;entryY=0.5;entryDx=0;entryDy=0;exitX=1;exitY=1;exitDx=0;exitDy=0;" parent="1" source="yvBd70dj7Lv0b1-4gbpd-14" target="yvBd70dj7Lv0b1-4gbpd-18" edge="1">
          <mxGeometry relative="1" as="geometry">
            <mxPoint x="1825" y="375" as="sourcePoint" />
            <mxPoint x="1985" y="375" as="targetPoint" />
          </mxGeometry>
        </mxCell>
        <mxCell id="yvBd70dj7Lv0b1-4gbpd-75" value="" style="endArrow=none;html=1;rounded=0;exitX=0;exitY=0;exitDx=0;exitDy=0;entryX=0.686;entryY=1.033;entryDx=0;entryDy=0;entryPerimeter=0;" parent="1" source="yvBd70dj7Lv0b1-4gbpd-20" target="yvBd70dj7Lv0b1-4gbpd-14" edge="1">
          <mxGeometry relative="1" as="geometry">
            <mxPoint x="1825" y="375" as="sourcePoint" />
            <mxPoint x="1985" y="375" as="targetPoint" />
          </mxGeometry>
        </mxCell>
        <mxCell id="yvBd70dj7Lv0b1-4gbpd-76" value="" style="endArrow=none;html=1;rounded=0;exitX=1;exitY=1;exitDx=0;exitDy=0;entryX=0;entryY=0;entryDx=0;entryDy=0;" parent="1" source="yvBd70dj7Lv0b1-4gbpd-14" target="yvBd70dj7Lv0b1-4gbpd-19" edge="1">
          <mxGeometry relative="1" as="geometry">
            <mxPoint x="1825" y="375" as="sourcePoint" />
            <mxPoint x="1985" y="375" as="targetPoint" />
          </mxGeometry>
        </mxCell>
        <mxCell id="yvBd70dj7Lv0b1-4gbpd-77" value="" style="endArrow=none;html=1;rounded=0;exitX=1;exitY=0.75;exitDx=0;exitDy=0;entryX=0;entryY=0.5;entryDx=0;entryDy=0;" parent="1" source="yvBd70dj7Lv0b1-4gbpd-14" target="yvBd70dj7Lv0b1-4gbpd-24" edge="1">
          <mxGeometry relative="1" as="geometry">
            <mxPoint x="1825" y="375" as="sourcePoint" />
            <mxPoint x="1985" y="375" as="targetPoint" />
          </mxGeometry>
        </mxCell>
        <mxCell id="yvBd70dj7Lv0b1-4gbpd-78" value="" style="endArrow=none;html=1;rounded=0;entryX=0;entryY=0.5;entryDx=0;entryDy=0;exitX=1;exitY=0.5;exitDx=0;exitDy=0;" parent="1" source="yvBd70dj7Lv0b1-4gbpd-14" target="yvBd70dj7Lv0b1-4gbpd-17" edge="1">
          <mxGeometry relative="1" as="geometry">
            <mxPoint x="1825" y="375" as="sourcePoint" />
            <mxPoint x="1985" y="375" as="targetPoint" />
          </mxGeometry>
        </mxCell>
        <mxCell id="yvBd70dj7Lv0b1-4gbpd-79" value="" style="endArrow=none;html=1;rounded=0;entryX=0;entryY=1;entryDx=0;entryDy=0;exitX=1;exitY=0.25;exitDx=0;exitDy=0;" parent="1" source="yvBd70dj7Lv0b1-4gbpd-14" target="yvBd70dj7Lv0b1-4gbpd-16" edge="1">
          <mxGeometry relative="1" as="geometry">
            <mxPoint x="1825" y="375" as="sourcePoint" />
            <mxPoint x="1985" y="375" as="targetPoint" />
          </mxGeometry>
        </mxCell>
        <mxCell id="yvBd70dj7Lv0b1-4gbpd-80" value="" style="endArrow=none;html=1;rounded=0;exitX=1;exitY=0;exitDx=0;exitDy=0;entryX=0;entryY=0.75;entryDx=0;entryDy=0;" parent="1" source="yvBd70dj7Lv0b1-4gbpd-22" target="yvBd70dj7Lv0b1-4gbpd-14" edge="1">
          <mxGeometry relative="1" as="geometry">
            <mxPoint x="1825" y="375" as="sourcePoint" />
            <mxPoint x="1985" y="375" as="targetPoint" />
          </mxGeometry>
        </mxCell>
        <mxCell id="yvBd70dj7Lv0b1-4gbpd-82" value="" style="endArrow=none;html=1;rounded=0;exitX=0.5;exitY=1;exitDx=0;exitDy=0;entryX=0;entryY=0;entryDx=0;entryDy=0;" parent="1" source="yvBd70dj7Lv0b1-4gbpd-25" target="yvBd70dj7Lv0b1-4gbpd-14" edge="1">
          <mxGeometry relative="1" as="geometry">
            <mxPoint x="1825" y="375" as="sourcePoint" />
            <mxPoint x="1985" y="375" as="targetPoint" />
          </mxGeometry>
        </mxCell>
        <mxCell id="yvBd70dj7Lv0b1-4gbpd-83" value="" style="endArrow=none;html=1;rounded=0;exitX=0.5;exitY=1;exitDx=0;exitDy=0;entryX=0.5;entryY=0;entryDx=0;entryDy=0;" parent="1" source="yvBd70dj7Lv0b1-4gbpd-26" target="yvBd70dj7Lv0b1-4gbpd-14" edge="1">
          <mxGeometry relative="1" as="geometry">
            <mxPoint x="1825" y="315" as="sourcePoint" />
            <mxPoint x="1985" y="315" as="targetPoint" />
          </mxGeometry>
        </mxCell>
        <mxCell id="yvBd70dj7Lv0b1-4gbpd-84" value="" style="endArrow=none;html=1;rounded=0;exitX=0.5;exitY=1;exitDx=0;exitDy=0;entryX=0.75;entryY=0;entryDx=0;entryDy=0;" parent="1" source="yvBd70dj7Lv0b1-4gbpd-15" target="yvBd70dj7Lv0b1-4gbpd-14" edge="1">
          <mxGeometry relative="1" as="geometry">
            <mxPoint x="1825" y="315" as="sourcePoint" />
            <mxPoint x="1985" y="315" as="targetPoint" />
          </mxGeometry>
        </mxCell>
        <mxCell id="yvBd70dj7Lv0b1-4gbpd-85" value="" style="endArrow=none;html=1;rounded=0;exitX=1;exitY=0;exitDx=0;exitDy=0;entryX=0;entryY=0.75;entryDx=0;entryDy=0;" parent="1" source="yvBd70dj7Lv0b1-4gbpd-31" target="yvBd70dj7Lv0b1-4gbpd-27" edge="1">
          <mxGeometry relative="1" as="geometry">
            <mxPoint x="1350" y="725" as="sourcePoint" />
            <mxPoint x="1510" y="725" as="targetPoint" />
          </mxGeometry>
        </mxCell>
        <mxCell id="yvBd70dj7Lv0b1-4gbpd-86" value="" style="endArrow=none;html=1;rounded=0;exitX=1;exitY=0.75;exitDx=0;exitDy=0;entryX=0;entryY=0;entryDx=0;entryDy=0;" parent="1" source="yvBd70dj7Lv0b1-4gbpd-27" target="yvBd70dj7Lv0b1-4gbpd-30" edge="1">
          <mxGeometry relative="1" as="geometry">
            <mxPoint x="1350" y="725" as="sourcePoint" />
            <mxPoint x="1510" y="725" as="targetPoint" />
          </mxGeometry>
        </mxCell>
        <mxCell id="yvBd70dj7Lv0b1-4gbpd-87" value="" style="endArrow=none;html=1;rounded=0;exitX=1;exitY=0;exitDx=0;exitDy=0;entryX=0.25;entryY=1;entryDx=0;entryDy=0;" parent="1" source="yvBd70dj7Lv0b1-4gbpd-28" target="yvBd70dj7Lv0b1-4gbpd-27" edge="1">
          <mxGeometry relative="1" as="geometry">
            <mxPoint x="1350" y="725" as="sourcePoint" />
            <mxPoint x="1510" y="725" as="targetPoint" />
          </mxGeometry>
        </mxCell>
        <mxCell id="yvBd70dj7Lv0b1-4gbpd-88" value="" style="endArrow=none;html=1;rounded=0;exitX=0.75;exitY=1;exitDx=0;exitDy=0;entryX=0;entryY=0;entryDx=0;entryDy=0;" parent="1" source="yvBd70dj7Lv0b1-4gbpd-27" target="yvBd70dj7Lv0b1-4gbpd-29" edge="1">
          <mxGeometry relative="1" as="geometry">
            <mxPoint x="1350" y="725" as="sourcePoint" />
            <mxPoint x="1510" y="725" as="targetPoint" />
          </mxGeometry>
        </mxCell>
        <mxCell id="yvBd70dj7Lv0b1-4gbpd-89" value="" style="endArrow=none;html=1;rounded=0;exitX=0.5;exitY=1;exitDx=0;exitDy=0;entryX=0.5;entryY=0;entryDx=0;entryDy=0;" parent="1" source="yvBd70dj7Lv0b1-4gbpd-27" target="yvBd70dj7Lv0b1-4gbpd-32" edge="1">
          <mxGeometry relative="1" as="geometry">
            <mxPoint x="1350" y="725" as="sourcePoint" />
            <mxPoint x="1510" y="725" as="targetPoint" />
          </mxGeometry>
        </mxCell>
        <mxCell id="yvBd70dj7Lv0b1-4gbpd-90" value="Scores" style="shape=rhombus;perimeter=rhombusPerimeter;whiteSpace=wrap;html=1;align=center;" parent="1" vertex="1">
          <mxGeometry x="1325" y="350" width="120" height="60" as="geometry" />
        </mxCell>
        <mxCell id="yvBd70dj7Lv0b1-4gbpd-91" value="" style="endArrow=none;html=1;rounded=0;exitX=1;exitY=1;exitDx=0;exitDy=0;entryX=0;entryY=0;entryDx=0;entryDy=0;" parent="1" source="yvBd70dj7Lv0b1-4gbpd-1" target="yvBd70dj7Lv0b1-4gbpd-90" edge="1">
          <mxGeometry relative="1" as="geometry">
            <mxPoint x="1200" y="300" as="sourcePoint" />
            <mxPoint x="1480" y="360" as="targetPoint" />
            <Array as="points" />
          </mxGeometry>
        </mxCell>
        <mxCell id="yvBd70dj7Lv0b1-4gbpd-93" value="" style="endArrow=none;html=1;rounded=0;entryX=0.5;entryY=1;entryDx=0;entryDy=0;exitX=0.5;exitY=0;exitDx=0;exitDy=0;" parent="1" source="yvBd70dj7Lv0b1-4gbpd-27" target="yvBd70dj7Lv0b1-4gbpd-90" edge="1">
          <mxGeometry relative="1" as="geometry">
            <mxPoint x="1160" y="460" as="sourcePoint" />
            <mxPoint x="1320" y="340" as="targetPoint" />
            <Array as="points" />
          </mxGeometry>
        </mxCell>
        <mxCell id="yvBd70dj7Lv0b1-4gbpd-94" value="M" style="resizable=0;html=1;whiteSpace=wrap;align=left;verticalAlign=bottom;" parent="yvBd70dj7Lv0b1-4gbpd-93" connectable="0" vertex="1">
          <mxGeometry x="-1" relative="1" as="geometry" />
        </mxCell>
        <mxCell id="yvBd70dj7Lv0b1-4gbpd-95" value="Recieves" style="shape=rhombus;perimeter=rhombusPerimeter;whiteSpace=wrap;html=1;align=center;" parent="1" vertex="1">
          <mxGeometry x="695" y="410" width="120" height="60" as="geometry" />
        </mxCell>
        <mxCell id="yvBd70dj7Lv0b1-4gbpd-96" value="" style="endArrow=none;html=1;rounded=0;entryX=0.5;entryY=1;entryDx=0;entryDy=0;exitX=0.5;exitY=0;exitDx=0;exitDy=0;" parent="1" source="yvBd70dj7Lv0b1-4gbpd-39" target="yvBd70dj7Lv0b1-4gbpd-95" edge="1">
          <mxGeometry relative="1" as="geometry">
            <mxPoint x="970" y="610" as="sourcePoint" />
            <mxPoint x="970" y="550" as="targetPoint" />
            <Array as="points" />
          </mxGeometry>
        </mxCell>
        <mxCell id="yvBd70dj7Lv0b1-4gbpd-97" value="M" style="resizable=0;html=1;whiteSpace=wrap;align=left;verticalAlign=bottom;" parent="yvBd70dj7Lv0b1-4gbpd-96" connectable="0" vertex="1">
          <mxGeometry x="-1" relative="1" as="geometry" />
        </mxCell>
        <mxCell id="yvBd70dj7Lv0b1-4gbpd-98" value="" style="endArrow=none;html=1;rounded=0;exitX=0.5;exitY=0;exitDx=0;exitDy=0;entryX=0;entryY=0.5;entryDx=0;entryDy=0;" parent="1" source="yvBd70dj7Lv0b1-4gbpd-95" target="yvBd70dj7Lv0b1-4gbpd-1" edge="1">
          <mxGeometry relative="1" as="geometry">
            <mxPoint x="1040" y="370" as="sourcePoint" />
            <mxPoint x="1125" y="310" as="targetPoint" />
            <Array as="points">
              <mxPoint x="755" y="180" />
            </Array>
          </mxGeometry>
        </mxCell>
        <mxCell id="yvBd70dj7Lv0b1-4gbpd-99" value="Manages" style="shape=rhombus;perimeter=rhombusPerimeter;whiteSpace=wrap;html=1;align=center;" parent="1" vertex="1">
          <mxGeometry x="990" y="350" width="120" height="60" as="geometry" />
        </mxCell>
        <mxCell id="yvBd70dj7Lv0b1-4gbpd-100" value="" style="endArrow=none;html=1;rounded=0;exitX=0.5;exitY=1;exitDx=0;exitDy=0;entryX=0.5;entryY=0;entryDx=0;entryDy=0;" parent="1" source="yvBd70dj7Lv0b1-4gbpd-1" target="yvBd70dj7Lv0b1-4gbpd-99" edge="1">
          <mxGeometry relative="1" as="geometry">
            <mxPoint x="1175" y="310" as="sourcePoint" />
            <mxPoint x="1025" y="340" as="targetPoint" />
            <Array as="points" />
          </mxGeometry>
        </mxCell>
        <mxCell id="yvBd70dj7Lv0b1-4gbpd-101" value="M" style="resizable=0;html=1;whiteSpace=wrap;align=left;verticalAlign=bottom;" parent="yvBd70dj7Lv0b1-4gbpd-100" connectable="0" vertex="1">
          <mxGeometry x="-1" relative="1" as="geometry">
            <mxPoint y="20" as="offset" />
          </mxGeometry>
        </mxCell>
        <mxCell id="yvBd70dj7Lv0b1-4gbpd-102" value="" style="endArrow=none;html=1;rounded=0;entryX=1;entryY=0.5;entryDx=0;entryDy=0;exitX=0.5;exitY=0;exitDx=0;exitDy=0;" parent="1" source="yvBd70dj7Lv0b1-4gbpd-5" target="yvBd70dj7Lv0b1-4gbpd-99" edge="1">
          <mxGeometry relative="1" as="geometry">
            <mxPoint x="1160" y="480" as="sourcePoint" />
            <mxPoint x="1030" y="410" as="targetPoint" />
            <Array as="points">
              <mxPoint x="1160" y="380" />
            </Array>
          </mxGeometry>
        </mxCell>
        <mxCell id="yvBd70dj7Lv0b1-4gbpd-105" value="Plays" style="shape=rhombus;perimeter=rhombusPerimeter;whiteSpace=wrap;html=1;align=center;" parent="1" vertex="1">
          <mxGeometry x="1510" y="350" width="120" height="60" as="geometry" />
        </mxCell>
        <mxCell id="yvBd70dj7Lv0b1-4gbpd-107" value="" style="endArrow=none;html=1;rounded=0;exitX=1;exitY=0.5;exitDx=0;exitDy=0;entryX=0;entryY=0.5;entryDx=0;entryDy=0;" parent="1" source="yvBd70dj7Lv0b1-4gbpd-1" target="yvBd70dj7Lv0b1-4gbpd-105" edge="1">
          <mxGeometry relative="1" as="geometry">
            <mxPoint x="1620" y="220" as="sourcePoint" />
            <mxPoint x="1780" y="220" as="targetPoint" />
            <Array as="points">
              <mxPoint x="1510" y="180" />
              <mxPoint x="1510" y="270" />
            </Array>
          </mxGeometry>
        </mxCell>
        <mxCell id="yvBd70dj7Lv0b1-4gbpd-108" value="" style="endArrow=none;html=1;rounded=0;entryX=1;entryY=0.5;entryDx=0;entryDy=0;exitX=0;exitY=0.5;exitDx=0;exitDy=0;" parent="1" source="yvBd70dj7Lv0b1-4gbpd-14" target="yvBd70dj7Lv0b1-4gbpd-105" edge="1">
          <mxGeometry relative="1" as="geometry">
            <mxPoint x="1780" y="335" as="sourcePoint" />
            <mxPoint x="1780" y="285" as="targetPoint" />
            <Array as="points" />
          </mxGeometry>
        </mxCell>
        <mxCell id="yvBd70dj7Lv0b1-4gbpd-109" value="M" style="resizable=0;html=1;whiteSpace=wrap;align=left;verticalAlign=bottom;" parent="yvBd70dj7Lv0b1-4gbpd-108" connectable="0" vertex="1">
          <mxGeometry x="-1" relative="1" as="geometry">
            <mxPoint x="-15" as="offset" />
          </mxGeometry>
        </mxCell>
        <mxCell id="FFzPE6-FUm0ZXlZZH0Fk-1" value="Country_ID" style="ellipse;whiteSpace=wrap;html=1;align=center;" vertex="1" parent="1">
          <mxGeometry x="1490" y="620" width="125" height="40" as="geometry" />
        </mxCell>
        <mxCell id="FFzPE6-FUm0ZXlZZH0Fk-2" value="Goal_Type" style="ellipse;whiteSpace=wrap;html=1;align=center;" vertex="1" parent="1">
          <mxGeometry x="1437.5" y="550" width="125" height="40" as="geometry" />
        </mxCell>
        <mxCell id="FFzPE6-FUm0ZXlZZH0Fk-3" value="" style="endArrow=none;html=1;rounded=0;exitX=1;exitY=0.5;exitDx=0;exitDy=0;entryX=0;entryY=0.5;entryDx=0;entryDy=0;" edge="1" parent="1" source="yvBd70dj7Lv0b1-4gbpd-27" target="FFzPE6-FUm0ZXlZZH0Fk-1">
          <mxGeometry relative="1" as="geometry">
            <mxPoint x="1466" y="659" as="sourcePoint" />
            <mxPoint x="1539" y="690" as="targetPoint" />
          </mxGeometry>
        </mxCell>
        <mxCell id="FFzPE6-FUm0ZXlZZH0Fk-4" value="" style="endArrow=none;html=1;rounded=0;exitX=1;exitY=0;exitDx=0;exitDy=0;entryX=0;entryY=1;entryDx=0;entryDy=0;" edge="1" parent="1" source="yvBd70dj7Lv0b1-4gbpd-27" target="FFzPE6-FUm0ZXlZZH0Fk-2">
          <mxGeometry relative="1" as="geometry">
            <mxPoint x="1450" y="620" as="sourcePoint" />
            <mxPoint x="1523" y="651" as="targetPoint" />
          </mxGeometry>
        </mxCell>
        <mxCell id="FFzPE6-FUm0ZXlZZH0Fk-5" value="Officiates" style="shape=rhombus;perimeter=rhombusPerimeter;whiteSpace=wrap;html=1;align=center;" vertex="1" parent="1">
          <mxGeometry x="1890" y="540" width="120" height="60" as="geometry" />
        </mxCell>
        <mxCell id="FFzPE6-FUm0ZXlZZH0Fk-6" value="" style="endArrow=none;html=1;rounded=0;entryX=0.5;entryY=0;entryDx=0;entryDy=0;exitX=0.5;exitY=1;exitDx=0;exitDy=0;" edge="1" parent="1" target="FFzPE6-FUm0ZXlZZH0Fk-5" source="yvBd70dj7Lv0b1-4gbpd-14">
          <mxGeometry relative="1" as="geometry">
            <mxPoint x="1640" y="630" as="sourcePoint" />
            <mxPoint x="1790" y="610" as="targetPoint" />
            <Array as="points" />
          </mxGeometry>
        </mxCell>
        <mxCell id="FFzPE6-FUm0ZXlZZH0Fk-8" value="" style="endArrow=none;html=1;rounded=0;exitX=0.5;exitY=0;exitDx=0;exitDy=0;entryX=0.5;entryY=1;entryDx=0;entryDy=0;" edge="1" parent="1" target="FFzPE6-FUm0ZXlZZH0Fk-5" source="yvBd70dj7Lv0b1-4gbpd-8">
          <mxGeometry relative="1" as="geometry">
            <mxPoint x="1690" y="770" as="sourcePoint" />
            <mxPoint x="1770" y="690" as="targetPoint" />
            <Array as="points" />
          </mxGeometry>
        </mxCell>
      </root>
    </mxGraphModel>
  </diagram>
</mxfile>
